<svg xmlns="http://www.w3.org/2000/svg" width="20" height="20" viewBox="0 0 24 24" fill="none">
  <path d="M12 2c-2.78 2.61-3.5 5.39-3.5 8.64v1.46l-2.06 2a.75.75 0 00-.23.54v2.8a.75.75 0 001.05.69l1.65-.71.92 3.9A.75.75 0 0010.55 22h2.9a.75.75 0 00.72-.58l.92-3.9 1.65.71a.75.75 0 001.05-.69v-2.8a.75.75 0 00-.23-.54L15.5 12.1v-1.46C15.5 7.39 14.78 4.61 12 2zm0 4.25A2.25 2.25 0 1112 10.75 2.25 2.25 0 0112 6.25z" fill="#a4ffb5"/>
  <path d="M8.5 14.75a4 4 0 00-3.77 2.66.5.5 0 00.65.63 7.37 7.37 0 002.87-2.07l.25-.26zM15.5 14.75a4 4 0 013.77 2.66.5.5 0 01-.65.63 7.37 7.37 0 01-2.87-2.07l-.25-.26z" fill="#80e695"/>
  <path d="M11 18.5l-1 3.5h4l-1-3.5h-2z" fill="#ff8a4c"/>
</svg>
